<?xml version="1.0" encoding="UTF-8"?>
<svg width="32" height="32" viewBox="0 0 32 32" fill="none" xmlns="http://www.w3.org/2000/svg">
  <path d="M16 2C13.2386 2 11 4.23858 11 7V9C11 10.6569 9.65685 12 8 12H7C4.23858 12 2 14.2386 2 17V23C2 26.866 5.13401 30 9 30H23C26.866 30 30 26.866 30 23V17C30 14.2386 27.7614 12 25 12H24C22.3431 12 21 10.6569 21 9V7C21 4.23858 18.7614 2 16 2Z" fill="#4BB6C2"/>
  <path d="M11 7C11 4.23858 13.2386 2 16 2C18.7614 2 21 4.23858 21 7V9C21 10.6569 22.3431 12 24 12H25C27.7614 12 30 14.2386 30 17V23C30 26.866 26.866 30 23 30H9C5.13401 30 2 26.866 2 23V17C2 14.2386 4.23858 12 7 12H8C9.65685 12 11 10.6569 11 9V7Z" stroke="#2D3748" stroke-width="2" stroke-linecap="round" stroke-linejoin="round"/>
</svg> 